<svg xmlns="http://www.w3.org/2000/svg" version="1.1" xmlns:xlink="http://www.w3.org/1999/xlink" xmlnsSvgjs="http://svgjs.dev/svgjs" width="1000" height="1000" viewBox="0 0 1000 1000"><rect width="1000" height="1000" fill="#000000"></rect><g transform="matrix(0.7,0,0,0.7,149.57575757575756,282.1265587044535)"><svg viewBox="0 0 396 247" data-background-color="#111111" preserveAspectRatio="xMidYMid meet" height="623" width="1000" xmlns="http://www.w3.org/2000/svg" xmlns:xlink="http://www.w3.org/1999/xlink"><g id="tight-bounds" transform="matrix(1,0,0,1,0.2400000000000091,-0.09999999999999432)"><svg viewBox="0 0 395.52 247.2" height="247.2" width="395.52"><g><svg></svg></g><g><svg viewBox="0 0 395.52 247.2" height="247.2" width="395.52"><g transform="matrix(1,0,0,1,144.7208291208791,47.215199999999996)"><svg viewBox="0 0 106.07834175824176 152.7696" height="152.7696" width="106.07834175824176"><g><svg viewBox="0 0 106.07834175824176 152.7696" height="152.7696" width="106.07834175824176"><g><svg viewBox="0 0 106.07834175824176 152.7696" height="152.7696" width="106.07834175824176"><g><svg viewBox="0 0 106.07834175824176 152.7696" height="152.7696" width="106.07834175824176"><g id="textblocktransform"><svg viewBox="0 0 106.07834175824176 152.7696" height="152.7696" width="106.07834175824176" id="textblock"><g><svg viewBox="0 0 106.07834175824176 152.7696" height="152.7696" width="106.07834175824176"><g transform="matrix(1,0,0,1,0,0)"><svg width="106.07834175824176" viewBox="0.7300000190734863 -35.54999923706055 24.690000534057617 35.54999923706055" height="152.7696" data-palette-color="#ffffff"><path d="M5.81-35.55L13.09-17.7 20.36-35.55 25.42-35.55 15.31-13.26 15.31 0 10.84 0 10.84-13.26 0.73-35.55 5.81-35.55Z" opacity="1" transform="matrix(1,0,0,1,0,0)" fill="#ffffff" class="undefined-text-0" data-fill-palette-color="primary" id="text-0"></path></svg></g></svg></g></svg></g></svg></g></svg></g></svg></g></svg></g><path d="M327.022 41.215L327.022 0 79.822 0 79.822 247.2 327.022 247.2 327.022 205.985 313.245 205.985 313.245 233.423 93.599 233.423 93.599 13.777 313.245 13.777 313.245 41.215Z" fill="#ffffff" stroke="transparent" data-fill-palette-color="primary"></path></svg></g><defs></defs></svg><rect width="395.52" height="247.2" fill="none" stroke="none" visibility="hidden"></rect></g></svg></g></svg>